<svg width="18" height="20" viewBox="0 0 18 20" fill="none" xmlns="http://www.w3.org/2000/svg">
<path fill-rule="evenodd" clip-rule="evenodd" d="M13.0162 0C13.205 1.2625 12.6875 2.49875 12.005 3.37375C11.2737 4.31125 10.0162 5.0375 8.79998 5C8.57873 3.79125 9.14873 2.5475 9.83873 1.70875C10.6 0.785 11.9025 0.07625 13.0162 0ZM12.9616 5.91C12.9001 5.91 12.8397 5.91144 12.7801 5.9142C12.7149 5.91058 12.6499 5.90875 12.585 5.90875C11.6778 5.90875 11.0565 6.14361 10.4919 6.35701C10.0776 6.51361 9.69387 6.65866 9.25017 6.69087C8.80647 6.65866 8.42273 6.51361 8.00844 6.35701L8.00843 6.35701C7.44386 6.14361 6.82252 5.90875 5.91535 5.90875C5.85048 5.90875 5.78541 5.91058 5.72021 5.9142C5.66065 5.91144 5.60019 5.91 5.53874 5.91C4.12624 5.91 2.62499 6.76625 1.67374 8.2325C0.334989 10.2938 0.562489 14.1713 2.73249 17.4763C3.50999 18.6588 4.54624 19.9875 5.90249 20C5.9841 20.0008 6.06176 19.9979 6.13612 19.9919C6.17893 19.9952 6.222 19.9971 6.26535 19.9975C6.82325 20.0027 7.1893 19.8351 7.58383 19.6544C8.01192 19.4584 8.47354 19.247 9.25017 19.2244C10.0268 19.247 10.4884 19.4584 10.9165 19.6544C11.311 19.8351 11.6771 20.0027 12.235 19.9975C12.2783 19.9971 12.3214 19.9952 12.3642 19.9919C12.4386 19.9979 12.5162 20.0008 12.5978 20C13.9541 19.9875 14.9903 18.6588 15.7678 17.4763C17.9378 14.1713 18.1653 10.2938 16.8266 8.2325C15.8753 6.76625 14.3741 5.91 12.9616 5.91Z" fill="#FDCC0C"/>
</svg>
