<svg width="20" height="19" viewBox="0 0 20 19" fill="none" xmlns="http://www.w3.org/2000/svg">
<path fill-rule="evenodd" clip-rule="evenodd" d="M8.75 0H11.25C15.375 0 18.75 3.375 18.75 7.5H1.25C1.25 3.375 4.625 0 8.75 0ZM6.25 3.75C6.25 4.5 6.75 5 7.5 5C8.25 5 8.75 4.5 8.75 3.75C8.75 3 8.25 2.5 7.5 2.5C6.75 2.5 6.25 3 6.25 3.75ZM13.75 6.25C13 6.25 12.5 5.75 12.5 5C12.5 4.25 13 3.75 13.75 3.75C14.5 3.75 15 4.25 15 5C15 5.75 14.5 6.25 13.75 6.25ZM18.75 12.5H1.25C0.5 12.5 0 12 0 11.25C0 10.5 0.5 10 1.25 10H18.75C19.5 10 20 10.5 20 11.25C20 12 19.5 12.5 18.75 12.5ZM1.25 15C1.25 17.125 2.875 18.75 5 18.75H15C17.125 18.75 18.75 17.125 18.75 15H1.25Z" fill="#FD5181"/>
</svg>
