<svg width="28" height="24" viewBox="0 0 28 24" fill="none" xmlns="http://www.w3.org/2000/svg">
<path fill-rule="evenodd" clip-rule="evenodd" d="M7.00002 11L11.3334 6.66663L10 5.3333C8.52002 3.8533 7.09335 3.31997 4.66669 3.3333V-3.236e-05C8.00002 -0.0133657 9.90669 0.599968 11.9734 2.66663L20.5334 11.2133C20.3334 11.32 20.1467 11.4266 19.9867 11.52C19.4934 11.8266 19.1867 12 18.4534 12C17.7272 12 17.4194 11.8169 16.9344 11.5285L16.92 11.52C16.32 11.16 15.4934 10.6666 14.0134 10.6666C12.5469 10.6666 11.7219 11.151 11.1102 11.5101L11.0934 11.52C10.6 11.8266 10.3067 12 9.56002 12C8.81335 12 8.52002 11.8266 8.02669 11.52C7.99922 11.5043 7.97125 11.4882 7.94274 11.4718C7.68053 11.3211 7.37281 11.1443 7.00002 11ZM6.6523 17.1381C6.16733 16.8497 5.85953 16.6666 5.13335 16.6666C4.40002 16.6666 4.09335 16.84 3.60002 17.1466C3.58708 17.1541 3.57406 17.1616 3.56095 17.1691C2.93894 17.5268 2.11613 18 0.666687 18V15.3333C1.41335 15.3333 1.70669 15.16 2.20002 14.8533C2.80002 14.4933 3.62669 14 5.10669 14C6.58669 14 7.41335 14.4933 8.01335 14.8533L8.02774 14.8619C8.51271 15.1503 8.82051 15.3333 9.54669 15.3333C10.2934 15.3333 10.5867 15.16 11.08 14.8533C11.68 14.4933 12.5067 14 13.9867 14C15.4667 14 16.2934 14.4933 16.8934 14.8533L16.9077 14.8619C17.3927 15.1503 17.7005 15.3333 18.4267 15.3333C19.16 15.3333 19.4667 15.16 19.96 14.8533C20.56 14.4933 21.3867 14 22.8667 14C24.3467 14 25.1734 14.4933 25.7734 14.8533L25.7877 14.8619C26.2727 15.1503 26.5805 15.3333 27.3067 15.3333V18C25.84 17.9866 25.0267 17.5066 24.4267 17.1466L24.4123 17.1381C23.9273 16.8497 23.6195 16.6666 22.8934 16.6666C22.1467 16.6666 21.8534 16.84 21.36 17.1466C20.76 17.5066 19.9334 18 18.4534 18C16.9734 18 16.1467 17.5066 15.5467 17.1466L15.5323 17.1381C15.0473 16.8497 14.7395 16.6666 14.0134 16.6666C13.2667 16.6666 12.9734 16.84 12.48 17.1466C11.88 17.5066 11.0534 18 9.57335 18C8.09335 18 7.26669 17.5066 6.66669 17.1466L6.6523 17.1381ZM19.9867 20.8533C20.5867 20.4933 21.4134 20 22.8934 20C24.3734 20 25.2 20.4933 25.8 20.8533C26.2934 21.16 26.5867 21.3333 27.3334 21.3333V24C25.8534 24 25.0267 23.5066 24.4267 23.1466L24.4123 23.1381C23.9273 22.8497 23.6195 22.6666 22.8934 22.6666C22.1467 22.6666 21.8534 22.84 21.36 23.1466L21.3275 23.1658C20.7179 23.5238 19.9073 24 18.4534 24C16.9734 24 16.1467 23.5066 15.5467 23.1466L15.5323 23.1381C15.0473 22.8497 14.7395 22.6666 14.0134 22.6666C13.2667 22.6666 12.9734 22.84 12.48 23.1466L12.4631 23.1565C11.8515 23.5156 11.0265 24 9.56002 24C8.08002 24 7.25335 23.5066 6.65335 23.1466C6.16002 22.84 5.85335 22.6666 5.12002 22.6666C4.38669 22.6666 4.08002 22.84 3.58669 23.1466L3.56982 23.1565C2.95819 23.5156 2.13316 24 0.666687 24V21.3333C1.41335 21.3333 1.70669 21.16 2.20002 20.8533L2.21689 20.8434C2.82852 20.4843 3.65355 20 5.12002 20C6.60002 20 7.42669 20.4933 8.02669 20.8533C8.52002 21.16 8.81335 21.3333 9.56002 21.3333C10.3067 21.3333 10.6 21.16 11.0934 20.8533L11.1102 20.8434C11.7219 20.4843 12.5469 20 14.0134 20C15.4934 20 16.32 20.4933 16.92 20.8533L16.9344 20.8619C17.4194 21.1503 17.7272 21.3333 18.4534 21.3333C19.1867 21.3333 19.4934 21.16 19.9867 20.8533ZM23.3334 3.33333C23.3334 5.17428 21.841 6.66667 20 6.66667C18.1591 6.66667 16.6667 5.17428 16.6667 3.33333C16.6667 1.49238 18.1591 6.49431e-08 20 6.49431e-08C21.841 6.49431e-08 23.3334 1.49238 23.3334 3.33333Z" fill="#FF0101"/>
</svg>
