<svg width="36" height="32" viewBox="0 0 36 32" fill="none" xmlns="http://www.w3.org/2000/svg">
<path fill-rule="evenodd" clip-rule="evenodd" d="M22 4C22 6.20914 20.2091 8 18 8C15.7909 8 14 6.20914 14 4C14 1.79086 15.7909 0 18 0C20.2091 0 22 1.79086 22 4ZM24.8 14.64C27.68 18.08 31.52 20 36 20V24C30.46 24 25.62 21.66 22 17.5V22L29.76 25.1C31.1 25.64 32 26.96 32 28.42C32 30.4 30.4 32 28.42 32H14V31C14 29.34 15.34 28 17 28H23C23.56 28 24 27.56 24 27C24 26.44 23.56 26 23 26H17C14.24 26 12 28.24 12 31V32H7.58C5.6 32 4 30.4 4 28.42C4 26.96 4.9 25.64 6.24 25.1L14 22V17.5C10.38 21.66 5.54 24 0 24V20C4.48 20 8.32 18.08 11.22 14.64L13.9 11.44C14.66 10.52 15.78 10 16.96 10H19.06C20.24 10 21.36 10.52 22.12 11.44L24.8 14.64Z" fill="#FF0101"/>
</svg>
